<svg width="25" height="25" viewBox="0 0 25 25" fill="none" xmlns="http://www.w3.org/2000/svg">
<path d="M13.5 8C13.7761 8 14 7.77614 14 7.5C14 7.22386 13.7761 7 13.5 7C13.2239 7 13 7.22386 13 7.5C13 7.77614 13.2239 8 13.5 8Z" fill="#5C6576"/>
<path d="M15.5 8C15.7761 8 16 7.77614 16 7.5C16 7.22386 15.7761 7 15.5 7C15.2239 7 15 7.22386 15 7.5C15 7.77614 15.2239 8 15.5 8Z" fill="#5C6576"/>
<path d="M13.5 10C13.7761 10 14 9.77614 14 9.5C14 9.22386 13.7761 9 13.5 9C13.2239 9 13 9.22386 13 9.5C13 9.77614 13.2239 10 13.5 10Z" fill="#5C6576"/>
<path d="M15.5 10C15.7761 10 16 9.77614 16 9.5C16 9.22386 15.7761 9 15.5 9C15.2239 9 15 9.22386 15 9.5C15 9.77614 15.2239 10 15.5 10Z" fill="#5C6576"/>
<path d="M11.5 10C11.7761 10 12 9.77614 12 9.5C12 9.22386 11.7761 9 11.5 9C11.2239 9 11 9.22386 11 9.5C11 9.77614 11.2239 10 11.5 10Z" fill="#5C6576"/>
<path d="M23.5 11.5H1.5V14C1.5 17.0376 3.96243 19.5 7 19.5H18C21.0376 19.5 23.5 17.0376 23.5 14V11.5Z" stroke="#5C6576"/>
<path d="M19.5 11.5V5C19.5 3.61929 18.3807 2.5 17 2.5V2.5C15.6193 2.5 14.5 3.61929 14.5 5V5.5" stroke="#5C6576" stroke-linecap="round"/>
<line x1="0.5" y1="-0.5" x2="3.5" y2="-0.5" transform="matrix(0.447214 0.894427 0.894427 -0.447214 18.38 19.15)" stroke="#5C6576" stroke-linecap="round"/>
<line x1="0.5" y1="-0.5" x2="3.5" y2="-0.5" transform="matrix(0.447291 -0.894389 -0.894389 -0.447291 4.82999 22.72)" stroke="#5C6576" stroke-linecap="round"/>
</svg>
