<svg width="25" height="25" viewBox="0 0 25 25" fill="none" xmlns="http://www.w3.org/2000/svg">
<path d="M0.5 15C0.5 12.5147 2.51472 10.5 5 10.5H20C22.4853 10.5 24.5 12.5147 24.5 15V19.5H0.5V15Z" stroke="#5C6576"/>
<path d="M22.5 11.5V4.5C22.5 3.39543 21.6046 2.5 20.5 2.5H4.5C3.39543 2.5 2.5 3.39543 2.5 4.5V11.5" stroke="#5C6576"/>
<path d="M4.5 8C4.5 7.17157 5.17157 6.5 6 6.5H10C10.8284 6.5 11.5 7.17157 11.5 8V8.5V10.5H4.5V8Z" stroke="#5C6576"/>
<path d="M13.5 8C13.5 7.17157 14.1716 6.5 15 6.5H19C19.8284 6.5 20.5 7.17157 20.5 8V10.5H13.5V8Z" stroke="#5C6576"/>
<line x1="2.5" y1="19.5" x2="2.5" y2="22.5" stroke="#5C6576" stroke-linecap="round"/>
<line x1="22.5" y1="19.5" x2="22.5" y2="22.5" stroke="#5C6576" stroke-linecap="round"/>
</svg>
