<svg width="25" height="25" viewBox="0 0 25 25" fill="none" xmlns="http://www.w3.org/2000/svg">
<path d="M5.5 10H19.5L20 11H5L5.5 10Z" fill="#5C6576"/>
<line x1="4.5" y1="14.5" x2="7.5" y2="14.5" stroke="#5C6576" stroke-linecap="round"/>
<line x1="17.5" y1="14.5" x2="20.5" y2="14.5" stroke="#5C6576" stroke-linecap="round"/>
<path d="M0 11C0 9.89543 0.895431 9 2 9V11H0Z" fill="#5C6576"/>
<path d="M23 9C24.1046 9 25 9.89543 25 11H23V9Z" fill="#5C6576"/>
<path d="M19.5 19V18.5H19H6H5.5V19V21C5.5 21.2761 5.27614 21.5 5 21.5H2C1.72386 21.5 1.5 21.2761 1.5 21L1.5 13.1296L5.86557 5.27154C6.13013 4.79534 6.63206 4.5 7.17681 4.5H17.8232C18.3679 4.5 18.8699 4.79534 19.1344 5.27154L23.5 13.1296V21C23.5 21.2761 23.2761 21.5 23 21.5H20C19.7239 21.5 19.5 21.2761 19.5 21V19Z" stroke="#5C6576"/>
</svg>
