<svg width="171" height="38" viewBox="0 0 171 38" fill="none" xmlns="http://www.w3.org/2000/svg">
<path fill-rule="evenodd" clip-rule="evenodd" d="M164.67 21.5578H159.357L164.234 14.5617C164.411 14.3183 164.557 14.0801 164.67 13.879V21.5578ZM168.741 30.2852V25.2462H170.875C170.956 24.6458 170.997 24.0533 171 23.4668V23.3485C170.997 22.7668 170.954 22.1689 170.87 21.5578H168.741V8.34786H164.5L154.687 22.3078C154.647 22.7086 154.625 23.1061 154.621 23.501V23.8091C154.626 24.2782 154.658 24.7576 154.716 25.2462H164.67V30.2852H168.741ZM153.449 26.5571H143.438C143.984 24.7824 145.332 23.7141 147.598 22.3431C150.068 20.8495 153.431 18.8843 153.431 15.0201C153.431 10.7575 150.284 8 146.031 8C142.126 8 139.765 10.5541 138.923 12.1671C139.464 12.5563 140.018 12.8987 140.587 13.1964L140.763 13.2866C141.348 13.5815 141.975 13.8392 142.64 14.0584C142.933 13.5759 144.022 12.0618 146.102 12.0618C147.866 12.0618 149.187 13.1151 149.187 15.0201C149.187 16.3151 147.935 17.4417 145.5 18.9147C143.103 20.3641 137.876 23.391 138.818 30.3047H153.448C153.537 29.6666 153.581 29.0375 153.581 28.4148C153.581 27.8122 153.537 27.1917 153.449 26.5571Z" fill="#F04432"/>
<path d="M16.75 10.45V28H12.475V20.775H5.825V28H1.55V10.45H5.825V17.325H12.475V10.45H16.75ZM26.1861 28.2C24.8195 28.2 23.5861 27.9083 22.4861 27.325C21.4028 26.7417 20.5445 25.9083 19.9111 24.825C19.2945 23.7417 18.9861 22.475 18.9861 21.025C18.9861 19.5917 19.3028 18.3333 19.9361 17.25C20.5695 16.15 21.4361 15.3083 22.5361 14.725C23.6361 14.1417 24.8695 13.85 26.2361 13.85C27.6028 13.85 28.8361 14.1417 29.9361 14.725C31.0361 15.3083 31.9028 16.15 32.5361 17.25C33.1695 18.3333 33.4861 19.5917 33.4861 21.025C33.4861 22.4583 33.1611 23.725 32.5111 24.825C31.8778 25.9083 31.0028 26.7417 29.8861 27.325C28.7861 27.9083 27.5528 28.2 26.1861 28.2ZM26.1861 24.5C27.0028 24.5 27.6945 24.2 28.2611 23.6C28.8445 23 29.1361 22.1417 29.1361 21.025C29.1361 19.9083 28.8528 19.05 28.2861 18.45C27.7361 17.85 27.0528 17.55 26.2361 17.55C25.4028 17.55 24.7111 17.85 24.1611 18.45C23.6111 19.0333 23.3361 19.8917 23.3361 21.025C23.3361 22.1417 23.6028 23 24.1361 23.6C24.6861 24.2 25.3695 24.5 26.1861 24.5ZM53.5541 13.9C55.2874 13.9 56.6624 14.425 57.6791 15.475C58.7124 16.525 59.2291 17.9833 59.2291 19.85V28H54.9791V20.425C54.9791 19.525 54.7374 18.8333 54.2541 18.35C53.7874 17.85 53.1374 17.6 52.3041 17.6C51.4708 17.6 50.8124 17.85 50.3291 18.35C49.8624 18.8333 49.6291 19.525 49.6291 20.425V28H45.3791V20.425C45.3791 19.525 45.1374 18.8333 44.6541 18.35C44.1874 17.85 43.5374 17.6 42.7041 17.6C41.8708 17.6 41.2124 17.85 40.7291 18.35C40.2624 18.8333 40.0291 19.525 40.0291 20.425V28H35.7541V14.05H40.0291V15.8C40.4624 15.2167 41.0291 14.7583 41.7291 14.425C42.4291 14.075 43.2208 13.9 44.1041 13.9C45.1541 13.9 46.0874 14.125 46.9041 14.575C47.7374 15.025 48.3874 15.6667 48.8541 16.5C49.3374 15.7333 49.9958 15.1083 50.8291 14.625C51.6624 14.1417 52.5708 13.9 53.5541 13.9ZM75.3689 20.8C75.3689 21.2 75.3439 21.6167 75.2939 22.05H65.6189C65.6856 22.9167 65.9606 23.5833 66.4439 24.05C66.9439 24.5 67.5523 24.725 68.2689 24.725C69.3356 24.725 70.0773 24.275 70.4939 23.375H75.0439C74.8106 24.2917 74.3856 25.1167 73.7689 25.85C73.1689 26.5833 72.4106 27.1583 71.4939 27.575C70.5773 27.9917 69.5523 28.2 68.4189 28.2C67.0523 28.2 65.8356 27.9083 64.7689 27.325C63.7023 26.7417 62.8689 25.9083 62.2689 24.825C61.6689 23.7417 61.3689 22.475 61.3689 21.025C61.3689 19.575 61.6606 18.3083 62.2439 17.225C62.8439 16.1417 63.6773 15.3083 64.7439 14.725C65.8106 14.1417 67.0356 13.85 68.4189 13.85C69.7689 13.85 70.9689 14.1333 72.0189 14.7C73.0689 15.2667 73.8856 16.075 74.4689 17.125C75.0689 18.175 75.3689 19.4 75.3689 20.8ZM70.9939 19.675C70.9939 18.9417 70.7439 18.3583 70.2439 17.925C69.7439 17.4917 69.1189 17.275 68.3689 17.275C67.6523 17.275 67.0439 17.4833 66.5439 17.9C66.0606 18.3167 65.7606 18.9083 65.6439 19.675H70.9939ZM93.8471 24.9H87.2971L86.2471 28H81.7721L88.1221 10.45H93.0721L99.4221 28H94.8971L93.8471 24.9ZM92.7471 21.6L90.5721 15.175L88.4221 21.6H92.7471ZM105.63 16.025C106.046 15.375 106.621 14.85 107.355 14.45C108.088 14.05 108.946 13.85 109.93 13.85C111.08 13.85 112.121 14.1417 113.055 14.725C113.988 15.3083 114.721 16.1417 115.255 17.225C115.805 18.3083 116.08 19.5667 116.08 21C116.08 22.4333 115.805 23.7 115.255 24.8C114.721 25.8833 113.988 26.725 113.055 27.325C112.121 27.9083 111.08 28.2 109.93 28.2C108.963 28.2 108.105 28 107.355 27.6C106.621 27.2 106.046 26.6833 105.63 26.05V34.65H101.355V14.05H105.63V16.025ZM111.73 21C111.73 19.9333 111.43 19.1 110.83 18.5C110.246 17.8833 109.521 17.575 108.655 17.575C107.805 17.575 107.08 17.8833 106.48 18.5C105.896 19.1167 105.605 19.9583 105.605 21.025C105.605 22.0917 105.896 22.9333 106.48 23.55C107.08 24.1667 107.805 24.475 108.655 24.475C109.505 24.475 110.23 24.1667 110.83 23.55C111.43 22.9167 111.73 22.0667 111.73 21ZM122.597 16.025C123.014 15.375 123.589 14.85 124.322 14.45C125.056 14.05 125.914 13.85 126.897 13.85C128.047 13.85 129.089 14.1417 130.022 14.725C130.956 15.3083 131.689 16.1417 132.222 17.225C132.772 18.3083 133.047 19.5667 133.047 21C133.047 22.4333 132.772 23.7 132.222 24.8C131.689 25.8833 130.956 26.725 130.022 27.325C129.089 27.9083 128.047 28.2 126.897 28.2C125.931 28.2 125.072 28 124.322 27.6C123.589 27.2 123.014 26.6833 122.597 26.05V34.65H118.322V14.05H122.597V16.025ZM128.697 21C128.697 19.9333 128.397 19.1 127.797 18.5C127.214 17.8833 126.489 17.575 125.622 17.575C124.772 17.575 124.047 17.8833 123.447 18.5C122.864 19.1167 122.572 19.9583 122.572 21.025C122.572 22.0917 122.864 22.9333 123.447 23.55C124.047 24.1667 124.772 24.475 125.622 24.475C126.472 24.475 127.197 24.1667 127.797 23.55C128.397 22.9167 128.697 22.0667 128.697 21Z" fill="#0D63C9"/>
</svg>
